<?xml version="1.0" encoding="utf-8"?>
<!-- Generator: Adobe Illustrator 20.0.0, SVG Export Plug-In . SVG Version: 6.00 Build 0)  -->
<svg version="1.1" id="Layer_1" xmlns="http://www.w3.org/2000/svg" xmlns:xlink="http://www.w3.org/1999/xlink" x="0px" y="0px"
	 viewBox="0 0 218.048 16.853" enable-background="new 0 0 218.048 16.853" xml:space="preserve">
<g>
	<path d="M0,13.27l0.774-1.566c0.684,0.342,1.674,0.612,2.755,0.612c0.972,0,1.494-0.342,1.494-1.152
		c0-0.811-0.504-1.099-2.034-1.71C1.261,8.769,0.324,8.121,0.324,6.464c0-2.017,1.314-2.863,3.385-2.863
		c1.314,0,2.071,0.18,2.863,0.522L5.78,5.798C5.222,5.563,4.52,5.366,3.637,5.366c-1.044,0-1.386,0.378-1.386,1.044
		c0,0.702,0.468,0.99,1.891,1.548c1.836,0.72,2.772,1.314,2.772,3.187c0,1.944-1.242,2.827-3.385,2.827
		C2.161,13.972,0.918,13.738,0,13.27z"/>
	<path d="M7.812,8.787c0-3.025,0.702-5.186,4.159-5.186c3.475,0,4.159,2.197,4.159,5.186c0,3.097-0.684,5.204-4.159,5.204
		C8.55,13.99,7.812,11.848,7.812,8.787z M14.096,8.859c0-1.981-0.198-3.367-2.125-3.367c-1.909,0-2.125,1.386-2.125,3.367
		c0,1.962,0.216,3.367,2.125,3.367C13.898,12.226,14.096,10.821,14.096,8.859z"/>
	<path d="M20.862,3.907l1.603-0.144l0.162,0.918c0.45-0.648,1.242-1.081,3.043-1.081c2.539,0,2.917,1.531,2.917,3.691v6.554H26.57
		V7.76c0-1.476-0.162-2.232-1.639-2.232c-1.783,0-2.053,0.972-2.053,2.953v5.366h-2.017V3.907z"/>
	<path d="M30.06,8.787c0-3.025,0.702-5.186,4.159-5.186c3.475,0,4.159,2.197,4.159,5.186c0,3.097-0.684,5.204-4.159,5.204
		C30.798,13.99,30.06,11.848,30.06,8.787z M36.343,8.859c0-1.981-0.198-3.367-2.125-3.367c-1.909,0-2.125,1.386-2.125,3.367
		c0,1.962,0.216,3.367,2.125,3.367C36.146,12.226,36.343,10.821,36.343,8.859z"/>
	<path d="M39.239,3.781h1.639l0.306-2.539L42.804,0.9v2.881h2.341v1.765h-2.341v5.275c0,0.828,0.126,1.26,1.207,1.26h1.134v1.765
		c-0.324,0.018-1.098,0.054-1.369,0.054c-2.395,0-2.971-0.847-2.971-2.863V5.546h-1.566V3.781z"/>
	<path d="M46.781,0h1.999v4.609c0.378-0.576,1.099-1.008,2.809-1.008c2.539,0,2.917,1.531,2.917,3.691v6.554h-2.017V7.76
		c0-1.476-0.162-2.232-1.639-2.232c-1.729,0-2.053,0.864-2.053,2.953v5.366h-2.017V0z"/>
	<path d="M56.429,0.486h2.035v2.179h-2.035V0.486z M56.429,3.781h2.017v10.065h-2.017V3.781z"/>
	<path d="M60.461,3.907l1.603-0.144l0.162,0.918c0.45-0.648,1.242-1.081,3.043-1.081c2.539,0,2.917,1.531,2.917,3.691v6.554h-2.017
		V7.76c0-1.476-0.162-2.232-1.639-2.232c-1.783,0-2.053,0.972-2.053,2.953v5.366h-2.017V3.907z"/>
	<path d="M72.306,10.173c-0.054,0.145-0.072,0.306-0.072,0.45c0,0.486,0.324,0.63,1.458,0.63c3.205,0,4.087,0.648,4.087,2.557
		c0,2.197-1.333,3.043-4.213,3.043c-2.953,0-4.213-0.54-4.213-2.431c0-1.207,0.54-2.035,1.747-2.341
		c-0.396-0.27-0.576-0.756-0.576-1.296c0-0.414,0.126-0.81,0.378-1.17c-0.684-0.504-1.062-1.35-1.062-2.628
		c0-2.449,1.35-3.403,3.709-3.403c0.216,0,0.45,0.018,0.702,0.036l3.439-0.594v1.584h-1.44c0.612,0.414,1.008,1.17,1.008,2.377
		c0,2.467-1.458,3.277-3.709,3.277C73.098,10.263,72.684,10.245,72.306,10.173z M75.745,13.918c0-0.828-0.36-1.134-2.197-1.134
		c-1.692,0-2.197,0.432-2.197,1.296c0,0.955,0.486,1.243,2.197,1.243C75.366,15.323,75.745,14.927,75.745,13.918z M75.276,7.004
		c0-1.152-0.54-1.656-1.729-1.656c-1.17,0-1.729,0.504-1.729,1.656s0.558,1.657,1.729,1.657C74.736,8.661,75.276,8.156,75.276,7.004
		z"/>
	<path d="M82.078,8.787c0-3.187,0.72-5.186,4.123-5.186c1.117,0,1.909,0.198,2.575,0.522L87.894,5.87
		c-0.468-0.252-0.973-0.378-1.603-0.378c-1.71,0-2.161,1.081-2.161,3.349s0.414,3.385,2.196,3.385c0.738,0,1.297-0.216,1.801-0.45
		l0.774,1.549c-0.937,0.45-1.675,0.666-2.827,0.666C82.816,13.99,82.078,11.992,82.078,8.787z"/>
	<path d="M89.476,8.787c0-3.025,0.702-5.186,4.159-5.186c3.475,0,4.159,2.197,4.159,5.186c0,3.097-0.684,5.204-4.159,5.204
		C90.214,13.99,89.476,11.848,89.476,8.787z M95.76,8.859c0-1.981-0.198-3.367-2.125-3.367c-1.909,0-2.125,1.386-2.125,3.367
		c0,1.962,0.216,3.367,2.125,3.367C95.562,12.226,95.76,10.821,95.76,8.859z"/>
	<path d="M99.34,3.907l1.603-0.144l0.162,0.918c0.414-0.648,1.152-1.081,2.953-1.081c1.729,0,2.178,0.468,2.413,1.116
		c0.45-0.684,1.278-1.116,3.115-1.116c2.575,0,2.827,1.531,2.827,3.691v6.554h-2.017V7.76c0-1.476-0.072-2.232-1.549-2.232
		c-1.692,0-1.98,0.882-1.98,2.953v5.366h-1.999V7.76c0-1.476-0.072-2.232-1.548-2.232c-1.711,0-1.999,0.9-1.999,2.953v5.366h-1.98
		V3.907z"/>
	<path d="M113.74,8.787c0-3.151,0.81-5.186,4.087-5.186c3.583,0,3.601,2.25,3.565,6.158h-5.708c0.09,1.657,0.504,2.485,2.196,2.485
		c1.314,0,1.98-0.306,2.575-0.594l0.774,1.549c-0.828,0.45-1.854,0.774-3.457,0.774C114.388,13.972,113.74,11.992,113.74,8.787z
		 M115.685,7.995h3.853c-0.018-1.639-0.072-2.611-1.765-2.611C116.152,5.384,115.756,6.32,115.685,7.995z"/>
	<path d="M122.235,13.27l0.774-1.566c0.684,0.342,1.674,0.612,2.755,0.612c0.972,0,1.494-0.342,1.494-1.152
		c0-0.811-0.504-1.099-2.034-1.71c-1.729-0.685-2.665-1.333-2.665-2.989c0-2.017,1.314-2.863,3.385-2.863
		c1.314,0,2.071,0.18,2.863,0.522l-0.792,1.675c-0.558-0.234-1.26-0.432-2.143-0.432c-1.044,0-1.386,0.378-1.386,1.044
		c0,0.702,0.468,0.99,1.891,1.548c1.836,0.72,2.772,1.314,2.772,3.187c0,1.944-1.242,2.827-3.385,2.827
		C124.396,13.972,123.154,13.738,122.235,13.27z"/>
	<path d="M133.773,0.486h2.035v2.179h-2.035V0.486z M133.773,3.781h2.017v10.065h-2.017V3.781z"/>
	<path d="M137.805,3.907l1.603-0.144l0.162,0.918c0.45-0.648,1.242-1.081,3.043-1.081c2.539,0,2.917,1.531,2.917,3.691v6.554h-2.017
		V7.76c0-1.476-0.162-2.232-1.639-2.232c-1.783,0-2.053,0.972-2.053,2.953v5.366h-2.017V3.907z"/>
	<path d="M150.801,15.053h0.99c0.522,0,0.702-0.162,0.828-0.576l0.18-0.612L149.72,3.781h2.053l2.053,7.202l2.035-7.202h1.98
		l-3.385,11.109c-0.45,1.494-1.224,1.8-2.683,1.8h-0.972V15.053z"/>
	<path d="M158.307,8.787c0-3.025,0.702-5.186,4.159-5.186c3.475,0,4.159,2.197,4.159,5.186c0,3.097-0.684,5.204-4.159,5.204
		C159.045,13.99,158.307,11.848,158.307,8.787z M164.59,8.859c0-1.981-0.198-3.367-2.125-3.367c-1.909,0-2.125,1.386-2.125,3.367
		c0,1.962,0.216,3.367,2.125,3.367C164.393,12.226,164.59,10.821,164.59,8.859z"/>
	<path d="M168.099,9.993V3.781h2.035v6.104c0,1.549,0.126,2.305,1.8,2.305c1.621,0,1.783-0.756,1.783-2.322V3.781h1.98v6.212
		c0,2.755-0.648,3.997-3.799,3.997C168.819,13.99,168.099,12.748,168.099,9.993z"/>
	<path d="M177.566,3.907l1.584-0.144l0.18,1.062c0.414-0.648,1.152-1.134,2.809-1.134V5.6c-2.413,0.036-2.557,1.531-2.557,3.241
		v5.005h-2.017V3.907z"/>
	<path d="M185.684,3.781h2.035l1.657,6.932l1.782-6.932h1.855l1.764,6.86l1.675-6.86h1.926l-2.611,10.137h-1.926l-1.801-6.734
		l-1.782,6.734h-1.945L185.684,3.781z"/>
	<path d="M198.859,10.821c0-2.881,1.657-3.691,5.167-3.691h0.396c-0.036-1.152-0.342-1.71-1.639-1.71
		c-1.081,0-1.927,0.252-2.503,0.54l-0.828-1.639c0.81-0.432,1.98-0.738,3.547-0.738c2.701,0,3.385,1.044,3.385,3.511v4.069
		c0,0.738,0.054,0.918,0.756,0.918v1.765c-0.198,0.018-0.396,0.018-0.576,0.018c-1.081,0-1.621-0.162-1.836-0.9
		c-0.576,0.738-1.458,0.99-2.827,0.99C199.526,13.954,198.859,12.73,198.859,10.821z M204.423,9.975V8.75h-0.378
		c-2.341,0-3.259,0.252-3.259,1.855c0,1.278,0.504,1.674,1.548,1.674C203.505,12.28,204.423,11.812,204.423,9.975z"/>
	<path d="M208.526,15.053h0.99c0.522,0,0.702-0.162,0.828-0.576l0.18-0.612l-3.079-10.083h2.053l2.053,7.202l2.035-7.202h1.98
		l-3.385,11.109c-0.45,1.494-1.224,1.8-2.683,1.8h-0.972V15.053z"/>
	<path d="M215.672,11.271h2.376v2.575h-2.376V11.271z"/>
</g>
</svg>
