<?xml version="1.0" encoding="utf-8"?>
<!-- Generator: Adobe Illustrator 20.0.0, SVG Export Plug-In . SVG Version: 6.00 Build 0)  -->
<svg version="1.1" id="Layer_1" xmlns="http://www.w3.org/2000/svg" xmlns:xlink="http://www.w3.org/1999/xlink" x="0px" y="0px"
	 viewBox="0 0 227.033 16.691" enable-background="new 0 0 227.033 16.691" xml:space="preserve">
<g>
	<path d="M3.691,2.413H0V0.504h9.507v1.908H5.798v11.434H3.691V2.413z"/>
	<path d="M10.674,0h1.999v4.609c0.378-0.576,1.099-1.008,2.809-1.008c2.539,0,2.917,1.53,2.917,3.691v6.554h-2.017V7.76
		c0-1.477-0.162-2.232-1.639-2.232c-1.729,0-2.053,0.864-2.053,2.953v5.366h-2.017V0z"/>
	<path d="M19.872,8.787c0-3.151,0.81-5.186,4.087-5.186c3.583,0,3.601,2.251,3.565,6.158h-5.708c0.09,1.657,0.504,2.485,2.196,2.485
		c1.314,0,1.98-0.306,2.575-0.594l0.774,1.548c-0.828,0.45-1.854,0.774-3.457,0.774C20.52,13.972,19.872,11.992,19.872,8.787z
		 M21.817,7.995h3.853c-0.018-1.639-0.072-2.611-1.765-2.611C22.285,5.384,21.889,6.32,21.817,7.995z"/>
	<path d="M32.436,0.504h7.616v1.908H34.47v3.601h5.312v1.909H34.47v4.051h5.618v1.873h-7.652V0.504z"/>
	<path d="M41.255,8.787c0-3.187,0.72-5.186,4.123-5.186c1.117,0,1.909,0.198,2.575,0.522L47.071,5.87
		c-0.468-0.252-0.973-0.378-1.603-0.378c-1.71,0-2.161,1.08-2.161,3.349c0,2.269,0.414,3.385,2.196,3.385
		c0.738,0,1.297-0.216,1.801-0.45l0.774,1.549c-0.937,0.45-1.675,0.666-2.827,0.666C41.994,13.99,41.255,11.992,41.255,8.787z"/>
	<path d="M48.653,8.787c0-3.025,0.702-5.186,4.159-5.186c3.475,0,4.159,2.197,4.159,5.186c0,3.097-0.684,5.204-4.159,5.204
		C49.392,13.99,48.653,11.848,48.653,8.787z M54.937,8.859c0-1.981-0.198-3.367-2.125-3.367c-1.909,0-2.125,1.386-2.125,3.367
		c0,1.962,0.216,3.367,2.125,3.367C54.739,12.226,54.937,10.821,54.937,8.859z"/>
	<path d="M57.977,12.874l1.044-1.603c0.684,0.414,1.873,0.918,3.475,0.918c1.656,0,2.376-0.648,2.376-1.801
		c0-1.404-0.738-1.747-2.899-2.557c-2.287-0.864-3.475-1.747-3.475-3.854c0-2.305,1.477-3.619,4.213-3.619
		c1.639,0,2.737,0.288,3.709,0.756l-0.9,1.783c-0.667-0.324-1.549-0.594-2.773-0.594c-1.53,0-2.197,0.594-2.197,1.603
		c0,1.134,0.54,1.458,2.359,2.179c2.863,1.134,3.997,1.8,3.997,4.267c0,2.251-1.422,3.637-4.357,3.637
		C60.462,13.99,58.985,13.522,57.977,12.874z"/>
	<path d="M68.399,3.907l1.603-0.144L70.146,4.7c0.468-0.667,1.351-1.099,3.097-1.099c2.989,0,3.349,2.449,3.349,5.186
		c0,2.791-0.432,5.186-3.421,5.186c-1.603,0-2.287-0.342-2.755-0.936v3.655h-2.017V3.907z M74.557,8.876
		c0-2.034-0.234-3.385-1.963-3.385c-1.98,0-2.179,1.368-2.179,3.385s0.18,3.331,2.179,3.331
		C74.287,12.208,74.557,10.929,74.557,8.876z"/>
	<path d="M77.741,8.787c0-3.025,0.702-5.186,4.159-5.186c3.475,0,4.159,2.197,4.159,5.186c0,3.097-0.684,5.204-4.159,5.204
		C78.479,13.99,77.741,11.848,77.741,8.787z M84.024,8.859c0-1.981-0.198-3.367-2.125-3.367c-1.909,0-2.125,1.386-2.125,3.367
		c0,1.962,0.216,3.367,2.125,3.367C83.827,12.226,84.024,10.821,84.024,8.859z"/>
	<path d="M87.604,3.907l1.584-0.144l0.18,1.062c0.414-0.648,1.152-1.135,2.809-1.135V5.6c-2.413,0.036-2.557,1.531-2.557,3.241
		v5.005h-2.017V3.907z"/>
	<path d="M92.608,3.781h1.639l0.306-2.539l1.62-0.342v2.881h2.341v1.765h-2.341v5.275c0,0.828,0.126,1.26,1.207,1.26h1.134v1.765
		c-0.324,0.018-1.098,0.054-1.368,0.054c-2.395,0-2.971-0.846-2.971-2.863V5.546h-1.566V3.781z"/>
	<path d="M103.498,0.504h4.717c2.917,0,4.105,1.422,4.105,4.141c0,2.683-1.17,4.375-4.141,4.375h-2.629v4.825h-2.053V0.504z
		 M108.144,7.148c1.477,0,2.143-0.648,2.143-2.395c0-1.765-0.666-2.376-2.143-2.376h-2.593v4.771H108.144z"/>
	<path d="M116.351,13.864c-1.801,0-2.449-0.594-2.449-2.539V0h2.017v11.073c0,0.792,0.054,1.008,1.152,1.008v1.765
		C116.963,13.864,116.765,13.864,116.351,13.864z"/>
	<path d="M117.97,10.821c0-2.881,1.657-3.691,5.167-3.691h0.396c-0.036-1.152-0.342-1.711-1.639-1.711
		c-1.081,0-1.927,0.252-2.503,0.541l-0.828-1.639c0.81-0.432,1.98-0.738,3.547-0.738c2.701,0,3.385,1.044,3.385,3.511v4.069
		c0,0.738,0.054,0.918,0.756,0.918v1.765c-0.198,0.018-0.396,0.018-0.576,0.018c-1.081,0-1.621-0.162-1.836-0.9
		c-0.576,0.738-1.458,0.99-2.827,0.99C118.637,13.954,117.97,12.73,117.97,10.821z M123.534,9.975V8.75h-0.378
		c-2.341,0-3.259,0.252-3.259,1.854c0,1.279,0.504,1.675,1.548,1.675C122.616,12.28,123.534,11.812,123.534,9.975z"/>
	<path d="M127.096,3.781h1.639l0.306-2.539l1.621-0.342v2.881h2.341v1.765h-2.341v5.275c0,0.828,0.126,1.26,1.207,1.26h1.134v1.765
		c-0.324,0.018-1.098,0.054-1.369,0.054c-2.395,0-2.971-0.846-2.971-2.863V5.546h-1.566V3.781z"/>
	<path d="M134.692,0.486h2.035v2.179h-2.035V0.486z M134.692,3.781h2.017v10.065h-2.017V3.781z"/>
	<path d="M138.724,3.907l1.603-0.144l0.162,0.918c0.45-0.648,1.242-1.081,3.043-1.081c2.539,0,2.917,1.53,2.917,3.691v6.554h-2.017
		V7.76c0-1.477-0.162-2.232-1.639-2.232c-1.783,0-2.053,0.972-2.053,2.953v5.366h-2.017V3.907z"/>
	<path d="M148.246,9.993V3.781h2.035v6.104c0,1.548,0.126,2.305,1.8,2.305c1.621,0,1.783-0.756,1.783-2.323V3.781h1.98v6.212
		c0,2.755-0.648,3.997-3.799,3.997C148.966,13.99,148.246,12.748,148.246,9.993z"/>
	<path d="M157.713,3.907l1.603-0.144l0.162,0.918c0.414-0.648,1.152-1.081,2.953-1.081c1.729,0,2.178,0.468,2.413,1.116
		c0.45-0.684,1.278-1.116,3.115-1.116c2.575,0,2.827,1.53,2.827,3.691v6.554h-2.017V7.76c0-1.477-0.072-2.232-1.549-2.232
		c-1.692,0-1.98,0.882-1.98,2.953v5.366h-1.999V7.76c0-1.477-0.072-2.232-1.548-2.232c-1.711,0-1.999,0.9-1.999,2.953v5.366h-1.98
		V3.907z"/>
	<path d="M175.857,0.504h7.616v1.908h-5.582v3.601h5.312v1.909h-5.312v4.051h5.618v1.873h-7.652V0.504z"/>
	<path d="M184.695,8.769c0-2.791,0.414-5.167,3.421-5.167c1.584,0,2.287,0.324,2.755,0.937V0h2.017v13.774l-1.621,0.126
		l-0.162-1.026c-0.486,0.684-1.314,1.098-3.079,1.098C185.038,13.972,184.695,11.542,184.695,8.769z M190.871,8.805
		c0-1.98-0.198-3.331-2.197-3.331c-1.71,0-1.962,1.296-1.962,3.331c0,2.053,0.216,3.403,1.962,3.403
		C190.655,12.208,190.871,10.839,190.871,8.805z"/>
	<path d="M194.865,0.486h2.035v2.179h-2.035V0.486z M194.865,3.781h2.017v10.065h-2.017V3.781z"/>
	<path d="M198.212,3.781h1.639l0.306-2.539l1.621-0.342v2.881h2.341v1.765h-2.341v5.275c0,0.828,0.126,1.26,1.207,1.26h1.134v1.765
		c-0.324,0.018-1.098,0.054-1.369,0.054c-2.395,0-2.971-0.846-2.971-2.863V5.546h-1.566V3.781z"/>
	<path d="M205.809,0.486h2.035v2.179h-2.035V0.486z M205.809,3.781h2.017v10.065h-2.017V3.781z"/>
	<path d="M209.444,8.787c0-3.025,0.702-5.186,4.159-5.186c3.475,0,4.159,2.197,4.159,5.186c0,3.097-0.684,5.204-4.159,5.204
		C210.183,13.99,209.444,11.848,209.444,8.787z M215.728,8.859c0-1.981-0.198-3.367-2.125-3.367c-1.909,0-2.125,1.386-2.125,3.367
		c0,1.962,0.216,3.367,2.125,3.367C215.53,12.226,215.728,10.821,215.728,8.859z"/>
	<path d="M219.308,3.907l1.603-0.144l0.162,0.918c0.45-0.648,1.242-1.081,3.043-1.081c2.539,0,2.917,1.53,2.917,3.691v6.554h-2.017
		V7.76c0-1.477-0.162-2.232-1.639-2.232c-1.783,0-2.053,0.972-2.053,2.953v5.366h-2.017V3.907z"/>
</g>
</svg>
