<?xml version="1.0" encoding="utf-8"?>
<!-- Generator: Adobe Illustrator 20.0.0, SVG Export Plug-In . SVG Version: 6.00 Build 0)  -->
<svg version="1.1" id="Layer_1" xmlns="http://www.w3.org/2000/svg" xmlns:xlink="http://www.w3.org/1999/xlink" x="0px" y="0px"
	 viewBox="0 0 274.23 17.194" enable-background="new 0 0 274.23 17.194" xml:space="preserve">
<g>
	<path d="M0,0.828h8.247v2.574h-5.42v2.881h5.167v2.558H2.827v5.329H0V0.828z"/>
	<path d="M8.838,9.038c0-3.187,0.882-5.257,4.501-5.257c3.637,0,4.483,2.106,4.483,5.257c0,3.277-0.846,5.294-4.483,5.294
		C9.756,14.332,8.838,12.262,8.838,9.038z M15.085,9.128c0-1.782-0.18-2.809-1.746-2.809c-1.567,0-1.747,1.026-1.747,2.809
		c0,1.765,0.18,2.827,1.747,2.827C14.906,11.955,15.085,10.893,15.085,9.128z"/>
	<path d="M19.152,4.123l2.161-0.181l0.234,0.955c0.45-0.595,1.17-1.026,2.845-1.026v2.574c-2.341,0.019-2.503,1.152-2.503,2.611
		v5.113h-2.737V4.123z"/>
	<path d="M24.822,9.021c0-2.845,0.468-5.239,3.529-5.239c1.44,0,2.143,0.233,2.629,0.773v-4.23h2.737V14.08l-2.179,0.18
		l-0.216-0.937c-0.541,0.631-1.423,0.973-3.097,0.973C25.2,14.296,24.822,11.829,24.822,9.021z M30.979,9.074
		c0-1.801-0.198-2.772-1.819-2.772c-1.368,0-1.602,0.918-1.602,2.772c0,1.873,0.198,2.863,1.602,2.863
		C30.746,11.938,30.979,10.929,30.979,9.074z"/>
	<path d="M35.352,10.947h3.097v3.223h-3.097V10.947z"/>
	<path d="M43.164,0.828h8.247v2.574h-5.42v2.881h5.167v2.558h-5.167v5.329h-2.827V0.828z"/>
	<path d="M52.002,9.038c0-3.259,0.954-5.257,4.411-5.257c4.033,0,3.907,2.719,3.853,6.499H54.63
		c0.108,1.207,0.504,1.693,1.855,1.693c1.35,0,2.035-0.288,2.683-0.595l1.026,2.071c-0.972,0.521-2.143,0.846-3.853,0.846
		C52.74,14.296,52.002,12.352,52.002,9.038z M54.613,8.174h3.259c-0.036-1.351-0.126-2.017-1.53-2.017
		C55.009,6.157,54.685,6.806,54.613,8.174z"/>
	<path d="M61.272,9.038c0-3.259,0.954-5.257,4.411-5.257c4.033,0,3.907,2.719,3.853,6.499h-5.635
		c0.108,1.207,0.504,1.693,1.854,1.693c1.35,0,2.034-0.288,2.683-0.595l1.026,2.071c-0.972,0.521-2.143,0.846-3.853,0.846
		C62.01,14.296,61.272,12.352,61.272,9.038z M63.883,8.174h3.259c-0.036-1.351-0.126-2.017-1.53-2.017
		C64.279,6.157,63.955,6.806,63.883,8.174z"/>
	<path d="M73.801,14.206c-1.873,0-2.791-0.595-2.791-2.935V0.324h2.719v10.568c0,0.774,0.072,0.919,1.062,0.919v2.358
		C74.683,14.188,74.377,14.206,73.801,14.206z"/>
	<path d="M75.312,13.54l1.044-2.107c0.738,0.36,1.854,0.667,2.971,0.667c0.774,0,1.134-0.234,1.134-0.793
		c0-0.594-0.342-0.756-1.98-1.296c-1.854-0.63-2.791-1.225-2.791-3.097c0-2.323,1.567-3.133,3.817-3.133
		c1.458,0,2.25,0.161,3.169,0.54l-1.044,2.25c-0.612-0.252-1.386-0.432-2.232-0.432c-0.882,0-1.117,0.234-1.117,0.72
		c0,0.486,0.324,0.685,1.765,1.152C82.1,8.679,83,9.272,83,11.271c0,2.106-1.314,3.024-3.673,3.024
		C77.833,14.296,76.374,14.098,75.312,13.54z"/>
	<path d="M90.126,14.206c-1.873,0-2.791-0.595-2.791-2.935V0.324h2.719v10.568c0,0.774,0.072,0.919,1.062,0.919v2.358
		C91.009,14.188,90.703,14.206,90.126,14.206z"/>
	<path d="M92.43,0.576h2.736v2.467H92.43V0.576z M92.43,3.961h2.719V14.17H92.43V3.961z"/>
	<path d="M96.966,0.324h2.665v7.742l2.773-4.105h2.863l-3.007,4.268l3.187,5.941h-2.899l-2.07-3.728l-0.847,1.261v2.467h-2.665
		V0.324z"/>
	<path d="M105.534,9.038c0-3.259,0.954-5.257,4.411-5.257c4.033,0,3.907,2.719,3.853,6.499h-5.635
		c0.108,1.207,0.504,1.693,1.854,1.693c1.35,0,2.034-0.288,2.683-0.595l1.026,2.071c-0.972,0.521-2.143,0.846-3.853,0.846
		C106.272,14.296,105.534,12.352,105.534,9.038z M108.145,8.174h3.259c-0.036-1.351-0.126-2.017-1.53-2.017
		C108.541,6.157,108.216,6.806,108.145,8.174z"/>
	<path d="M117.612,3.961h1.656V3.133c0-2.017,1.08-3.133,3.565-3.133c0.684,0,1.17,0.018,1.477,0.036v2.34h-1.207
		c-0.954,0-1.116,0.343-1.116,1.062v0.522h2.323v2.377h-2.323v7.832h-2.719V6.338h-1.656V3.961z"/>
	<path d="M124.47,11.091c0-2.862,1.584-3.673,5.24-3.673h0.36c-0.054-0.847-0.342-1.206-1.35-1.206c-1.152,0-1.999,0.252-2.593,0.54
		l-1.099-2.197c0.9-0.468,2.161-0.81,3.997-0.81c2.809,0,3.673,0.954,3.673,3.475v3.799c0,0.631,0.054,0.793,0.702,0.793v2.358
		c-0.288,0.036-0.558,0.036-0.81,0.036c-1.296,0-1.783-0.126-2.089-0.847c-0.54,0.648-1.35,0.937-2.809,0.937
		C125.028,14.296,124.47,12.928,124.47,11.091z M130.069,10.28V9.345h-0.342c-2.017,0-2.665,0.27-2.665,1.44
		c0,0.9,0.324,1.278,1.26,1.278C129.385,12.063,130.069,11.686,130.069,10.28z"/>
	<path d="M134.73,4.123l2.179-0.181l0.198,0.811c0.468-0.612,1.26-0.972,3.007-0.972c1.638,0,2.161,0.45,2.395,0.99
		c0.504-0.612,1.368-0.99,3.169-0.99c2.521,0,2.863,1.584,2.863,3.709v6.68h-2.701V8.174c0-1.206-0.072-1.8-1.242-1.8
		c-1.387,0-1.621,0.647-1.621,2.178v5.618h-2.701V8.174c0-1.206-0.072-1.8-1.225-1.8c-1.404,0-1.639,0.666-1.639,2.178v5.618h-2.683
		V4.123z"/>
	<path d="M150.192,0.576h2.737v2.467h-2.737V0.576z M150.192,3.961h2.719V14.17h-2.719V3.961z"/>
	<path d="M157.591,14.206c-1.873,0-2.791-0.595-2.791-2.935V0.324h2.719v10.568c0,0.774,0.072,0.919,1.062,0.919v2.358
		C158.473,14.188,158.167,14.206,157.591,14.206z"/>
	<path d="M160.254,14.836h1.152c0.486,0,0.612-0.126,0.702-0.432l0.054-0.234l-3.115-10.209h2.791l1.729,6.266l1.711-6.266h2.683
		l-3.367,11.001c-0.54,1.765-1.476,2.053-3.205,2.053h-1.134V14.836z"/>
	<path d="M167.94,15.557c1.152-0.612,1.314-0.721,1.314-1.387h-1.368v-3.223h3.097v2.952c0,1.513-0.288,2.053-2.287,3.025
		L167.94,15.557z"/>
	<path d="M174.87,3.961h1.657V3.133c0-2.017,1.081-3.133,3.565-3.133c0.685,0,1.17,0.018,1.477,0.036v2.34h-1.207
		c-0.954,0-1.116,0.343-1.116,1.062v0.522h2.323v2.377h-2.323v7.832h-2.719V6.338h-1.657V3.961z"/>
	<path d="M181.98,9.038c0-3.187,0.882-5.257,4.501-5.257c3.637,0,4.483,2.106,4.483,5.257c0,3.277-0.846,5.294-4.483,5.294
		C182.898,14.332,181.98,12.262,181.98,9.038z M188.228,9.128c0-1.782-0.18-2.809-1.747-2.809c-1.566,0-1.746,1.026-1.746,2.809
		c0,1.765,0.18,2.827,1.746,2.827C188.048,11.955,188.228,10.893,188.228,9.128z"/>
	<path d="M192.294,4.123l2.161-0.181l0.234,0.955c0.45-0.595,1.17-1.026,2.845-1.026v2.574c-2.341,0.019-2.503,1.152-2.503,2.611
		v5.113h-2.737V4.123z"/>
	<path d="M201.113,11.091c0-2.862,1.584-3.673,5.24-3.673h0.36c-0.054-0.847-0.342-1.206-1.35-1.206
		c-1.152,0-1.999,0.252-2.593,0.54l-1.099-2.197c0.9-0.468,2.161-0.81,3.997-0.81c2.809,0,3.673,0.954,3.673,3.475v3.799
		c0,0.631,0.054,0.793,0.702,0.793v2.358c-0.288,0.036-0.558,0.036-0.81,0.036c-1.296,0-1.783-0.126-2.089-0.847
		c-0.54,0.648-1.35,0.937-2.809,0.937C201.671,14.296,201.113,12.928,201.113,11.091z M206.713,10.28V9.345h-0.342
		c-2.017,0-2.665,0.27-2.665,1.44c0,0.9,0.324,1.278,1.26,1.278C206.029,12.063,206.713,11.686,206.713,10.28z"/>
	<path d="M214.038,9.038c0-3.259,0.792-5.257,4.447-5.257c1.333,0,2.143,0.216,2.827,0.54l-1.188,2.358
		c-0.415-0.216-0.882-0.36-1.495-0.36c-1.386,0-1.819,0.757-1.819,2.809c0,2.053,0.396,2.827,1.873,2.827
		c0.684,0,1.206-0.198,1.71-0.414l1.026,2.07c-1.08,0.522-1.872,0.702-3.097,0.702C214.884,14.313,214.038,12.352,214.038,9.038z"/>
	<path d="M222.498,0.324h2.701v4.356c0.432-0.558,1.17-0.899,2.773-0.899c2.503,0,2.989,1.584,2.989,3.709v6.68h-2.737V8.174
		c0-1.206-0.144-1.8-1.314-1.8c-1.44,0-1.692,0.647-1.692,2.178v5.618h-2.719V0.324z"/>
	<path d="M232.164,11.091c0-2.862,1.584-3.673,5.24-3.673h0.36c-0.054-0.847-0.342-1.206-1.35-1.206
		c-1.152,0-1.999,0.252-2.593,0.54l-1.099-2.197c0.9-0.468,2.161-0.81,3.998-0.81c2.809,0,3.673,0.954,3.673,3.475v3.799
		c0,0.631,0.054,0.793,0.702,0.793v2.358c-0.288,0.036-0.558,0.036-0.81,0.036c-1.296,0-1.783-0.126-2.089-0.847
		c-0.54,0.648-1.35,0.937-2.809,0.937C232.722,14.296,232.164,12.928,232.164,11.091z M237.763,10.28V9.345h-0.342
		c-2.017,0-2.665,0.27-2.665,1.44c0,0.9,0.324,1.278,1.26,1.278C237.079,12.063,237.763,11.686,237.763,10.28z"/>
	<path d="M242.423,4.123l2.179-0.181l0.198,0.811c0.486-0.612,1.35-0.972,3.097-0.972c2.503,0,2.989,1.584,2.989,3.709v6.68h-2.737
		V8.174c0-1.206-0.144-1.8-1.314-1.8c-1.458,0-1.692,0.702-1.692,2.178v5.618h-2.719V4.123z"/>
	<path d="M255.331,10.515c-0.018,0.09-0.018,0.181-0.018,0.271c0,0.414,0.216,0.54,1.314,0.54c3.547,0,4.429,0.648,4.429,2.665
		c0,2.395-1.513,3.204-4.609,3.204c-3.151,0-4.591-0.468-4.591-2.431c0-1.296,0.594-2.052,1.729-2.322
		c-0.378-0.324-0.541-0.847-0.541-1.404c0-0.433,0.108-0.847,0.36-1.206c-0.684-0.505-1.062-1.333-1.062-2.575
		c0-2.484,1.44-3.493,4.087-3.493c0.162,0,0.324,0,0.522,0.019l4.016-0.829V5.06h-1.387c0.576,0.378,0.954,1.044,0.954,2.196
		c0,2.503-1.62,3.313-4.105,3.313C256.033,10.569,255.672,10.569,255.331,10.515z M258.301,14.17c0-0.648-0.252-0.9-1.873-0.9
		c-1.44,0-1.873,0.307-1.873,1.009c0,0.684,0.414,1.026,1.854,1.026C258.049,15.305,258.301,14.926,258.301,14.17z M257.869,7.31
		c0-0.846-0.378-1.296-1.44-1.296c-1.026,0-1.422,0.45-1.422,1.296c0,0.847,0.396,1.314,1.422,1.314
		C257.491,8.624,257.869,8.156,257.869,7.31z"/>
	<path d="M261.719,9.038c0-3.259,0.954-5.257,4.411-5.257c4.033,0,3.907,2.719,3.853,6.499h-5.635
		c0.108,1.207,0.504,1.693,1.854,1.693c1.35,0,2.034-0.288,2.683-0.595l1.026,2.071c-0.972,0.521-2.143,0.846-3.853,0.846
		C262.458,14.296,261.719,12.352,261.719,9.038z M264.33,8.174h3.259c-0.036-1.351-0.126-2.017-1.53-2.017
		C264.726,6.157,264.402,6.806,264.33,8.174z"/>
	<path d="M271.133,10.947h3.097v3.223h-3.097V10.947z"/>
</g>
</svg>
