<?xml version="1.0" encoding="utf-8"?>
<!-- Generator: Adobe Illustrator 20.0.0, SVG Export Plug-In . SVG Version: 6.00 Build 0)  -->
<svg version="1.1" id="Layer_1" xmlns="http://www.w3.org/2000/svg" xmlns:xlink="http://www.w3.org/1999/xlink" x="0px" y="0px"
	 viewBox="0 0 236.732 13.99" enable-background="new 0 0 236.732 13.99" xml:space="preserve">
<g>
	<path d="M0,3.781h2.034l1.657,6.932l1.783-6.932h1.854l1.764,6.86l1.675-6.86h1.926l-2.61,10.137H8.156L6.355,7.184l-1.782,6.734
		H2.628L0,3.781z"/>
	<path d="M13.932,0.486h2.035v2.179h-2.035V0.486z M13.932,3.781h2.017v10.065h-2.017V3.781z"/>
	<path d="M17.279,3.781h1.639l0.306-2.539L20.844,0.9v2.881h2.341v1.765h-2.341v5.275c0,0.828,0.126,1.26,1.207,1.26h1.134v1.765
		c-0.324,0.018-1.098,0.054-1.369,0.054c-2.395,0-2.971-0.847-2.971-2.863V5.546h-1.566V3.781z"/>
	<path d="M24.821,0h1.999v4.609c0.378-0.576,1.099-1.008,2.809-1.008c2.539,0,2.917,1.531,2.917,3.691v6.554h-2.017V7.76
		c0-1.476-0.162-2.232-1.639-2.232c-1.729,0-2.053,0.864-2.053,2.953v5.366h-2.017V0z"/>
	<path d="M37.187,12.226l3.079-3.637c2.25-2.647,2.449-3.295,2.449-4.556c0-1.206-0.45-1.765-1.891-1.765
		c-1.044,0-1.945,0.271-2.665,0.63l-0.882-1.692c0.954-0.486,2.07-0.846,3.871-0.846c2.61,0,3.601,1.134,3.601,3.385
		c0,1.999-0.468,2.881-3.043,5.942l-1.999,2.376h5.221v1.783h-7.742V12.226z"/>
	<path d="M46.781,7.184c0-4.447,0.594-6.824,4.483-6.824c3.835,0,4.447,2.413,4.447,6.824c0,4.556-0.612,6.806-4.447,6.806
		C47.411,13.99,46.781,11.686,46.781,7.184z M53.659,7.184c0-3.547-0.45-4.879-2.395-4.879c-1.999,0-2.413,1.333-2.413,4.879
		c0,3.565,0.414,4.934,2.413,4.934C53.245,12.118,53.659,10.749,53.659,7.184z"/>
	<path d="M57.688,7.184c0-4.447,0.594-6.824,4.483-6.824c3.835,0,4.447,2.413,4.447,6.824c0,4.556-0.612,6.806-4.447,6.806
		C58.319,13.99,57.688,11.686,57.688,7.184z M64.566,7.184c0-3.547-0.45-4.879-2.395-4.879c-1.999,0-2.413,1.333-2.413,4.879
		c0,3.565,0.414,4.934,2.413,4.934C64.152,12.118,64.566,10.749,64.566,7.184z"/>
	<path d="M71.764,3.907l1.603-0.144l0.162,0.918c0.414-0.648,1.152-1.081,2.953-1.081c1.729,0,2.179,0.468,2.413,1.116
		c0.45-0.684,1.278-1.116,3.115-1.116c2.575,0,2.827,1.531,2.827,3.691v6.554h-2.017V7.76c0-1.476-0.072-2.232-1.548-2.232
		c-1.692,0-1.98,0.882-1.98,2.953v5.366h-1.999V7.76c0-1.476-0.072-2.232-1.548-2.232c-1.71,0-1.999,0.9-1.999,2.953v5.366h-1.981
		V3.907z"/>
	<path d="M86.56,3.907l1.603-0.144l0.162,0.918c0.414-0.648,1.152-1.081,2.953-1.081c1.729,0,2.179,0.468,2.413,1.116
		c0.45-0.684,1.278-1.116,3.115-1.116c2.575,0,2.827,1.531,2.827,3.691v6.554h-2.017V7.76c0-1.476-0.072-2.232-1.548-2.232
		c-1.692,0-1.98,0.882-1.98,2.953v5.366h-1.999V7.76c0-1.476-0.072-2.232-1.548-2.232c-1.71,0-1.999,0.9-1.999,2.953v5.366H86.56
		V3.907z"/>
	<path d="M104.127,7.184c0-4.879,1.351-6.824,5.258-6.824c1.62,0,2.754,0.396,3.619,0.954l-1.098,1.71
		c-0.594-0.342-1.368-0.666-2.611-0.666c-2.07,0-3.079,0.936-3.079,4.861c0,3.745,0.72,4.987,3.007,4.987
		c1.98,0,2.413-0.882,2.413-3.781V8.013h-2.971V6.194h4.969v1.891c0,4.447-0.882,5.906-4.591,5.906
		C105.172,13.99,104.127,11.596,104.127,7.184z"/>
	<path d="M115.162,3.907l1.584-0.144l0.18,1.062c0.414-0.648,1.152-1.134,2.809-1.134V5.6c-2.413,0.036-2.557,1.531-2.557,3.241
		v5.005h-2.017V3.907z"/>
	<path d="M120.237,8.787c0-3.025,0.702-5.186,4.159-5.186c3.475,0,4.159,2.197,4.159,5.186c0,3.097-0.684,5.204-4.159,5.204
		C120.976,13.99,120.237,11.848,120.237,8.787z M126.521,8.859c0-1.981-0.198-3.367-2.125-3.367c-1.909,0-2.125,1.386-2.125,3.367
		c0,1.962,0.216,3.367,2.125,3.367C126.323,12.226,126.521,10.821,126.521,8.859z"/>
	<path d="M130.029,9.993V3.781h2.035v6.104c0,1.549,0.126,2.305,1.8,2.305c1.621,0,1.783-0.756,1.783-2.322V3.781h1.98v6.212
		c0,2.755-0.648,3.997-3.799,3.997C130.75,13.99,130.029,12.748,130.029,9.993z"/>
	<path d="M139.497,3.907l1.603-0.144l0.162,0.918c0.45-0.648,1.242-1.081,3.043-1.081c2.539,0,2.917,1.531,2.917,3.691v6.554h-2.017
		V7.76c0-1.476-0.162-2.232-1.639-2.232c-1.783,0-2.053,0.972-2.053,2.953v5.366h-2.017V3.907z"/>
	<path d="M148.713,8.769c0-2.791,0.414-5.167,3.421-5.167c1.584,0,2.287,0.324,2.755,0.937V0h2.017v13.774l-1.621,0.126
		l-0.162-1.026c-0.486,0.684-1.314,1.098-3.079,1.098C149.055,13.972,148.713,11.542,148.713,8.769z M154.889,8.805
		c0-1.98-0.198-3.331-2.197-3.331c-1.71,0-1.962,1.296-1.962,3.331c0,2.053,0.216,3.403,1.962,3.403
		C154.673,12.208,154.889,10.839,154.889,8.805z"/>
	<path d="M161.6,7.184c0-4.087,0.9-6.824,5.167-6.824c1.422,0,2.557,0.342,3.367,0.882l-1.116,1.729
		c-0.504-0.324-1.261-0.576-2.305-0.576c-2.305,0-3.007,1.387-3.007,4.826s0.666,4.897,3.024,4.897c1.099,0,1.765-0.234,2.503-0.702
		l1.026,1.603c-0.972,0.63-1.944,0.972-3.637,0.972C162.608,13.99,161.6,11.343,161.6,7.184z"/>
	<path d="M174.039,13.864c-1.801,0-2.449-0.594-2.449-2.539V0h2.017v11.073c0,0.792,0.054,1.008,1.152,1.008v1.765
		C174.651,13.864,174.453,13.864,174.039,13.864z"/>
	<path d="M175.64,8.787c0-3.151,0.81-5.186,4.087-5.186c3.583,0,3.601,2.25,3.565,6.158h-5.708c0.09,1.657,0.504,2.485,2.196,2.485
		c1.314,0,1.98-0.306,2.575-0.594l0.774,1.549c-0.828,0.45-1.854,0.774-3.457,0.774C176.288,13.972,175.64,11.992,175.64,8.787z
		 M177.585,7.995h3.853c-0.018-1.639-0.072-2.611-1.765-2.611C178.053,5.384,177.657,6.32,177.585,7.995z"/>
	<path d="M184.298,10.821c0-2.881,1.657-3.691,5.167-3.691h0.396c-0.036-1.152-0.342-1.71-1.639-1.71
		c-1.081,0-1.927,0.252-2.503,0.54l-0.828-1.639c0.81-0.432,1.98-0.738,3.547-0.738c2.701,0,3.385,1.044,3.385,3.511v4.069
		c0,0.738,0.054,0.918,0.756,0.918v1.765c-0.198,0.018-0.396,0.018-0.576,0.018c-1.081,0-1.621-0.162-1.836-0.9
		c-0.576,0.738-1.458,0.99-2.827,0.99C184.964,13.954,184.298,12.73,184.298,10.821z M189.862,9.975V8.75h-0.378
		c-2.341,0-3.259,0.252-3.259,1.855c0,1.278,0.504,1.674,1.548,1.674C188.943,12.28,189.862,11.812,189.862,9.975z"/>
	<path d="M194.108,3.907l1.584-0.144l0.18,1.062c0.414-0.648,1.152-1.134,2.809-1.134V5.6c-2.413,0.036-2.557,1.531-2.557,3.241
		v5.005h-2.017V3.907z"/>
	<path d="M199.004,10.821c0-2.881,1.657-3.691,5.167-3.691h0.396c-0.036-1.152-0.342-1.71-1.639-1.71
		c-1.081,0-1.927,0.252-2.503,0.54l-0.828-1.639c0.81-0.432,1.98-0.738,3.547-0.738c2.701,0,3.385,1.044,3.385,3.511v4.069
		c0,0.738,0.054,0.918,0.756,0.918v1.765c-0.198,0.018-0.396,0.018-0.576,0.018c-1.081,0-1.621-0.162-1.836-0.9
		c-0.576,0.738-1.458,0.99-2.827,0.99C199.67,13.954,199.004,12.73,199.004,10.821z M204.568,9.975V8.75h-0.378
		c-2.341,0-3.259,0.252-3.259,1.855c0,1.278,0.504,1.674,1.548,1.674C203.649,12.28,204.568,11.812,204.568,9.975z"/>
	<path d="M208.814,3.907l1.603-0.144l0.162,0.918c0.45-0.648,1.242-1.081,3.043-1.081c2.539,0,2.917,1.531,2.917,3.691v6.554h-2.017
		V7.76c0-1.476-0.162-2.232-1.639-2.232c-1.783,0-2.053,0.972-2.053,2.953v5.366h-2.017V3.907z"/>
	<path d="M218.012,8.787c0-3.187,0.72-5.186,4.123-5.186c1.117,0,1.909,0.198,2.575,0.522l-0.882,1.747
		c-0.468-0.252-0.973-0.378-1.603-0.378c-1.71,0-2.161,1.081-2.161,3.349s0.414,3.385,2.196,3.385c0.738,0,1.297-0.216,1.801-0.45
		l0.774,1.549c-0.937,0.45-1.675,0.666-2.827,0.666C218.75,13.99,218.012,11.992,218.012,8.787z"/>
	<path d="M225.41,8.787c0-3.151,0.81-5.186,4.087-5.186c3.583,0,3.601,2.25,3.565,6.158h-5.708c0.09,1.657,0.504,2.485,2.196,2.485
		c1.314,0,1.98-0.306,2.575-0.594l0.774,1.549c-0.828,0.45-1.854,0.774-3.457,0.774C226.058,13.972,225.41,11.992,225.41,8.787z
		 M227.354,7.995h3.853c-0.018-1.639-0.072-2.611-1.765-2.611C227.822,5.384,227.426,6.32,227.354,7.995z"/>
	<path d="M234.356,11.271h2.376v2.575h-2.376V11.271z"/>
</g>
</svg>
