<?xml version="1.0" encoding="utf-8"?>
<!-- Generator: Adobe Illustrator 20.0.0, SVG Export Plug-In . SVG Version: 6.00 Build 0)  -->
<svg version="1.1" id="Layer_1" xmlns="http://www.w3.org/2000/svg" xmlns:xlink="http://www.w3.org/1999/xlink" x="0px" y="0px"
	 viewBox="0 0 195.881 13.99" enable-background="new 0 0 195.881 13.99" xml:space="preserve">
<g>
	<path d="M0,12.226l3.079-3.638c2.25-2.646,2.448-3.295,2.448-4.555c0-1.207-0.45-1.765-1.891-1.765c-1.044,0-1.944,0.27-2.665,0.63
		L0.09,1.206C1.044,0.72,2.16,0.359,3.961,0.359c2.61,0,3.602,1.135,3.602,3.386c0,1.998-0.469,2.881-3.043,5.941l-1.999,2.377
		h5.222v1.782H0V12.226z"/>
	<path d="M9.594,7.184c0-4.447,0.594-6.824,4.483-6.824c3.835,0,4.447,2.413,4.447,6.824c0,4.556-0.612,6.807-4.447,6.807
		C10.224,13.99,9.594,11.686,9.594,7.184z M16.472,7.184c0-3.547-0.45-4.879-2.395-4.879c-1.999,0-2.413,1.332-2.413,4.879
		c0,3.565,0.414,4.934,2.413,4.934C16.058,12.117,16.472,10.749,16.472,7.184z"/>
	<path d="M20.501,7.184c0-4.447,0.595-6.824,4.483-6.824c3.835,0,4.447,2.413,4.447,6.824c0,4.556-0.612,6.807-4.447,6.807
		C21.132,13.99,20.501,11.686,20.501,7.184z M27.379,7.184c0-3.547-0.45-4.879-2.395-4.879c-1.998,0-2.412,1.332-2.412,4.879
		c0,3.565,0.414,4.934,2.412,4.934C26.965,12.117,27.379,10.749,27.379,7.184z"/>
	<path d="M34.577,3.906l1.603-0.144l0.162,0.918c0.414-0.647,1.152-1.08,2.952-1.08c1.729,0,2.179,0.468,2.413,1.116
		c0.45-0.684,1.278-1.116,3.115-1.116c2.574,0,2.826,1.53,2.826,3.691v6.554h-2.017V7.76c0-1.477-0.071-2.232-1.548-2.232
		c-1.692,0-1.98,0.882-1.98,2.953v5.365h-1.999V7.76c0-1.477-0.072-2.232-1.548-2.232c-1.711,0-1.999,0.9-1.999,2.953v5.365h-1.98
		V3.906z"/>
	<path d="M49.373,3.906l1.603-0.144l0.162,0.918c0.414-0.647,1.152-1.08,2.952-1.08c1.729,0,2.179,0.468,2.413,1.116
		c0.45-0.684,1.278-1.116,3.115-1.116c2.574,0,2.826,1.53,2.826,3.691v6.554h-2.017V7.76c0-1.477-0.071-2.232-1.548-2.232
		c-1.692,0-1.98,0.882-1.98,2.953v5.365H54.9V7.76c0-1.477-0.072-2.232-1.548-2.232c-1.711,0-1.999,0.9-1.999,2.953v5.365h-1.98
		V3.906z"/>
	<path d="M66.94,7.184c0-4.879,1.351-6.824,5.258-6.824c1.62,0,2.754,0.396,3.618,0.955l-1.098,1.71
		c-0.595-0.342-1.368-0.666-2.611-0.666c-2.07,0-3.078,0.937-3.078,4.861c0,3.745,0.72,4.987,3.007,4.987
		c1.98,0,2.412-0.882,2.412-3.781V8.012h-2.971V6.193h4.97v1.891c0,4.447-0.883,5.906-4.592,5.906
		C67.984,13.99,66.94,11.595,66.94,7.184z"/>
	<path d="M77.975,3.906l1.584-0.144l0.181,1.062c0.414-0.648,1.152-1.135,2.809-1.135V5.6c-2.413,0.035-2.557,1.53-2.557,3.24v5.006
		h-2.017V3.906z"/>
	<path d="M83.05,8.786c0-3.024,0.702-5.186,4.159-5.186c3.476,0,4.159,2.196,4.159,5.186c0,3.097-0.684,5.204-4.159,5.204
		C83.788,13.99,83.05,11.847,83.05,8.786z M89.334,8.858c0-1.98-0.198-3.367-2.125-3.367c-1.908,0-2.124,1.387-2.124,3.367
		c0,1.962,0.216,3.367,2.124,3.367C89.136,12.226,89.334,10.82,89.334,8.858z"/>
	<path d="M92.842,9.992V3.78h2.035v6.104c0,1.548,0.126,2.305,1.8,2.305c1.621,0,1.783-0.757,1.783-2.323V3.78h1.98v6.212
		c0,2.755-0.648,3.998-3.8,3.998C93.562,13.99,92.842,12.747,92.842,9.992z"/>
	<path d="M102.31,3.906l1.603-0.144l0.162,0.918c0.45-0.647,1.242-1.08,3.043-1.08c2.539,0,2.917,1.53,2.917,3.691v6.554h-2.017
		V7.76c0-1.477-0.162-2.232-1.639-2.232c-1.782,0-2.053,0.973-2.053,2.953v5.365h-2.017V3.906z"/>
	<path d="M111.525,8.769c0-2.791,0.414-5.168,3.421-5.168c1.585,0,2.287,0.324,2.755,0.937V0h2.017v13.773l-1.62,0.126l-0.162-1.026
		c-0.486,0.685-1.314,1.099-3.079,1.099C111.867,13.972,111.525,11.541,111.525,8.769z M117.701,8.805
		c0-1.981-0.198-3.331-2.196-3.331c-1.711,0-1.963,1.296-1.963,3.331c0,2.052,0.216,3.402,1.963,3.402
		C117.485,12.207,117.701,10.839,117.701,8.805z"/>
	<path d="M124.413,7.184c0-4.087,0.9-6.824,5.167-6.824c1.423,0,2.557,0.343,3.367,0.883l-1.116,1.729
		c-0.504-0.324-1.261-0.576-2.305-0.576c-2.305,0-3.007,1.386-3.007,4.825s0.666,4.897,3.024,4.897c1.099,0,1.765-0.234,2.503-0.702
		l1.026,1.603c-0.972,0.63-1.944,0.973-3.637,0.973C125.421,13.99,124.413,11.343,124.413,7.184z"/>
	<path d="M136.852,13.863c-1.801,0-2.448-0.594-2.448-2.538V0h2.017v11.073c0,0.792,0.054,1.008,1.152,1.008v1.765
		C137.464,13.863,137.266,13.863,136.852,13.863z"/>
	<path d="M138.453,8.786c0-3.151,0.81-5.186,4.087-5.186c3.583,0,3.602,2.251,3.565,6.158h-5.708
		c0.09,1.656,0.504,2.484,2.196,2.484c1.314,0,1.98-0.306,2.575-0.594l0.774,1.548c-0.828,0.45-1.854,0.774-3.457,0.774
		C139.101,13.972,138.453,11.991,138.453,8.786z M140.397,7.994h3.854c-0.019-1.639-0.072-2.611-1.765-2.611
		C140.865,5.383,140.47,6.319,140.397,7.994z"/>
	<path d="M147.111,10.82c0-2.881,1.656-3.69,5.167-3.69h0.396c-0.036-1.152-0.342-1.711-1.639-1.711c-1.08,0-1.927,0.252-2.503,0.54
		l-0.828-1.638c0.811-0.433,1.98-0.738,3.547-0.738c2.701,0,3.386,1.044,3.386,3.511v4.069c0,0.738,0.054,0.918,0.756,0.918v1.765
		c-0.198,0.018-0.396,0.018-0.576,0.018c-1.08,0-1.62-0.162-1.837-0.899c-0.576,0.737-1.458,0.99-2.826,0.99
		C147.777,13.954,147.111,12.729,147.111,10.82z M152.675,9.975V8.75h-0.378c-2.341,0-3.259,0.252-3.259,1.854
		c0,1.278,0.504,1.675,1.548,1.675C151.757,12.279,152.675,11.812,152.675,9.975z"/>
	<path d="M156.921,3.906l1.585-0.144l0.18,1.062c0.414-0.648,1.152-1.135,2.809-1.135V5.6c-2.412,0.035-2.557,1.53-2.557,3.24v5.006
		h-2.017V3.906z"/>
	<path d="M161.816,10.82c0-2.881,1.657-3.69,5.168-3.69h0.396c-0.036-1.152-0.343-1.711-1.639-1.711
		c-1.081,0-1.927,0.252-2.503,0.54l-0.828-1.638c0.81-0.433,1.98-0.738,3.547-0.738c2.701,0,3.385,1.044,3.385,3.511v4.069
		c0,0.738,0.055,0.918,0.757,0.918v1.765c-0.198,0.018-0.396,0.018-0.576,0.018c-1.081,0-1.621-0.162-1.837-0.899
		c-0.576,0.737-1.458,0.99-2.827,0.99C162.483,13.954,161.816,12.729,161.816,10.82z M167.381,9.975V8.75h-0.379
		c-2.341,0-3.259,0.252-3.259,1.854c0,1.278,0.504,1.675,1.549,1.675C166.462,12.279,167.381,11.812,167.381,9.975z"/>
	<path d="M171.627,3.906l1.603-0.144l0.162,0.918c0.45-0.647,1.242-1.08,3.043-1.08c2.538,0,2.917,1.53,2.917,3.691v6.554h-2.017
		V7.76c0-1.477-0.162-2.232-1.639-2.232c-1.783,0-2.053,0.973-2.053,2.953v5.365h-2.017V3.906z"/>
	<path d="M180.825,8.786c0-3.187,0.72-5.186,4.123-5.186c1.116,0,1.908,0.198,2.574,0.522l-0.882,1.746
		c-0.468-0.252-0.973-0.378-1.603-0.378c-1.71,0-2.16,1.08-2.16,3.349c0,2.27,0.414,3.386,2.196,3.386
		c0.738,0,1.296-0.217,1.801-0.45l0.774,1.548c-0.937,0.45-1.675,0.667-2.827,0.667C181.563,13.99,180.825,11.991,180.825,8.786z"/>
	<path d="M188.223,8.786c0-3.151,0.811-5.186,4.088-5.186c3.583,0,3.601,2.251,3.564,6.158h-5.708
		c0.091,1.656,0.505,2.484,2.197,2.484c1.314,0,1.98-0.306,2.574-0.594l0.774,1.548c-0.828,0.45-1.854,0.774-3.457,0.774
		C188.871,13.972,188.223,11.991,188.223,8.786z M190.167,7.994h3.854c-0.018-1.639-0.072-2.611-1.765-2.611
		C190.636,5.383,190.239,6.319,190.167,7.994z"/>
</g>
</svg>
