<?xml version="1.0" encoding="utf-8"?>
<!-- Generator: Adobe Illustrator 20.0.0, SVG Export Plug-In . SVG Version: 6.00 Build 0)  -->
<svg version="1.1" id="Layer_1" xmlns="http://www.w3.org/2000/svg" xmlns:xlink="http://www.w3.org/1999/xlink" x="0px" y="0px"
	 viewBox="0 0 232.917 16.691" enable-background="new 0 0 232.917 16.691" xml:space="preserve">
<g>
	<path d="M0,0.504h2.233L7.31,9.669V0.504h1.999v13.342H7.382L1.98,4.177v9.669H0V0.504z"/>
	<path d="M10.998,8.787c0-3.025,0.702-5.186,4.159-5.186c3.475,0,4.159,2.197,4.159,5.186c0,3.097-0.684,5.204-4.159,5.204
		C11.736,13.99,10.998,11.848,10.998,8.787z M17.282,8.859c0-1.981-0.198-3.367-2.125-3.367c-1.909,0-2.125,1.386-2.125,3.367
		c0,1.962,0.216,3.367,2.125,3.367C17.084,12.226,17.282,10.821,17.282,8.859z"/>
	<path d="M19.908,3.781h2.034l1.657,6.932l1.783-6.932h1.854L29,10.641l1.675-6.86h1.926l-2.61,10.137h-1.927l-1.801-6.734
		l-1.782,6.734h-1.945L19.908,3.781z"/>
	<path d="M36.971,0h1.999v4.664c0.468-0.702,1.296-1.062,2.845-1.062c2.989,0,3.349,2.449,3.349,5.186
		c0,2.791-0.414,5.186-3.421,5.186c-1.944,0-2.449-0.396-2.989-1.026l-0.306,0.972l-1.477-0.126V0z M43.129,8.877
		c0-2.035-0.216-3.385-1.962-3.385c-1.98,0-2.179,1.369-2.179,3.385s0.18,3.331,2.179,3.331
		C42.877,12.208,43.129,10.929,43.129,8.877z"/>
	<path d="M46.637,9.993V3.781h2.035v6.104c0,1.549,0.126,2.305,1.8,2.305c1.621,0,1.783-0.756,1.783-2.322V3.781h1.98v6.212
		c0,2.755-0.648,3.997-3.799,3.997C47.357,13.99,46.637,12.748,46.637,9.993z"/>
	<path d="M56.105,3.907l1.603-0.144l0.162,0.918c0.414-0.648,1.152-1.081,2.953-1.081c1.729,0,2.179,0.468,2.413,1.116
		c0.45-0.684,1.278-1.116,3.115-1.116c2.575,0,2.827,1.531,2.827,3.691v6.554H67.16V7.76c0-1.476-0.072-2.232-1.548-2.232
		c-1.692,0-1.98,0.882-1.98,2.953v5.366h-1.999V7.76c0-1.476-0.072-2.232-1.548-2.232c-1.71,0-1.999,0.9-1.999,2.953v5.366h-1.981
		V3.907z"/>
	<path d="M70.901,3.907l1.603-0.144l0.144,0.936c0.468-0.666,1.351-1.098,3.097-1.098c2.989,0,3.349,2.449,3.349,5.186
		c0,2.791-0.432,5.186-3.421,5.186c-1.603,0-2.287-0.342-2.755-0.936v3.655h-2.017V3.907z M77.059,8.877
		c0-2.035-0.234-3.385-1.962-3.385c-1.98,0-2.179,1.369-2.179,3.385s0.18,3.331,2.179,3.331
		C76.789,12.208,77.059,10.929,77.059,8.877z"/>
	<path d="M80.621,15.053h0.99c0.522,0,0.702-0.162,0.828-0.576l0.18-0.612L79.541,3.781h2.053l2.053,7.202l2.035-7.202h1.98
		l-3.385,11.109c-0.45,1.494-1.224,1.8-2.683,1.8h-0.972V15.053z"/>
	<path d="M91.942,3.907l1.584-0.144l0.18,1.062c0.414-0.648,1.152-1.134,2.809-1.134V5.6c-2.413,0.036-2.557,1.531-2.557,3.241
		v5.005h-2.017V3.907z"/>
	<path d="M97.019,8.787c0-3.025,0.702-5.186,4.159-5.186c3.475,0,4.159,2.197,4.159,5.186c0,3.097-0.684,5.204-4.159,5.204
		C97.757,13.99,97.019,11.848,97.019,8.787z M103.302,8.859c0-1.981-0.198-3.367-2.125-3.367c-1.909,0-2.125,1.386-2.125,3.367
		c0,1.962,0.216,3.367,2.125,3.367C103.104,12.226,103.302,10.821,103.302,8.859z"/>
	<path d="M106.36,10.821c0-2.881,1.657-3.691,5.167-3.691h0.396c-0.036-1.152-0.342-1.71-1.639-1.71
		c-1.081,0-1.927,0.252-2.503,0.54l-0.828-1.639c0.81-0.432,1.98-0.738,3.547-0.738c2.701,0,3.385,1.044,3.385,3.511v4.069
		c0,0.738,0.054,0.918,0.756,0.918v1.765c-0.198,0.018-0.396,0.018-0.576,0.018c-1.081,0-1.621-0.162-1.836-0.9
		c-0.576,0.738-1.458,0.99-2.827,0.99C107.027,13.954,106.36,12.73,106.36,10.821z M111.924,9.975V8.75h-0.378
		c-2.341,0-3.259,0.252-3.259,1.855c0,1.278,0.504,1.674,1.548,1.674C111.006,12.28,111.924,11.812,111.924,9.975z"/>
	<path d="M115.792,8.769c0-2.791,0.414-5.167,3.421-5.167c1.584,0,2.287,0.324,2.755,0.937V0h2.017v13.774l-1.621,0.126
		l-0.162-1.026c-0.486,0.684-1.314,1.098-3.079,1.098C116.135,13.972,115.792,11.542,115.792,8.769z M121.968,8.805
		c0-1.98-0.198-3.331-2.197-3.331c-1.71,0-1.962,1.296-1.962,3.331c0,2.053,0.216,3.403,1.962,3.403
		C121.752,12.208,121.968,10.839,121.968,8.805z"/>
	<path d="M125.188,13.27l0.774-1.566c0.684,0.342,1.674,0.612,2.755,0.612c0.972,0,1.494-0.342,1.494-1.152
		c0-0.811-0.504-1.099-2.034-1.71c-1.729-0.685-2.665-1.333-2.665-2.989c0-2.017,1.314-2.863,3.385-2.863
		c1.314,0,2.071,0.18,2.863,0.522l-0.792,1.675c-0.558-0.234-1.26-0.432-2.143-0.432c-1.044,0-1.386,0.378-1.386,1.044
		c0,0.702,0.468,0.99,1.891,1.548c1.836,0.72,2.772,1.314,2.772,3.187c0,1.944-1.242,2.827-3.385,2.827
		C127.348,13.972,126.106,13.738,125.188,13.27z"/>
	<path d="M136.293,8.769c0-2.791,0.414-5.167,3.421-5.167c1.584,0,2.287,0.324,2.755,0.937V0h2.017v13.774l-1.621,0.126
		l-0.162-1.026c-0.486,0.684-1.314,1.098-3.079,1.098C136.636,13.972,136.293,11.542,136.293,8.769z M142.469,8.805
		c0-1.98-0.198-3.331-2.197-3.331c-1.71,0-1.962,1.296-1.962,3.331c0,2.053,0.216,3.403,1.962,3.403
		C142.253,12.208,142.469,10.839,142.469,8.805z"/>
	<path d="M146.013,8.787c0-3.025,0.702-5.186,4.159-5.186c3.475,0,4.159,2.197,4.159,5.186c0,3.097-0.684,5.204-4.159,5.204
		C146.751,13.99,146.013,11.848,146.013,8.787z M152.297,8.859c0-1.981-0.198-3.367-2.125-3.367c-1.909,0-2.125,1.386-2.125,3.367
		c0,1.962,0.216,3.367,2.125,3.367C152.099,12.226,152.297,10.821,152.297,8.859z"/>
	<path d="M155.877,3.907l1.603-0.144l0.162,0.918c0.45-0.648,1.242-1.081,3.043-1.081c2.539,0,2.917,1.531,2.917,3.691v6.554h-2.017
		V7.76c0-1.476-0.162-2.232-1.639-2.232c-1.783,0-2.053,0.972-2.053,2.953v5.366h-2.017V3.907z"/>
	<path d="M165.381,4.573c0.9-0.504,1.08-0.738,1.08-1.404h-1.08V0.504h2.376v2.323c0,1.494-0.288,2.034-1.8,2.791L165.381,4.573z"/>
	<path d="M168.927,3.781h1.639l0.306-2.539l1.621-0.342v2.881h2.341v1.765h-2.341v5.275c0,0.828,0.126,1.26,1.207,1.26h1.134v1.765
		c-0.324,0.018-1.098,0.054-1.369,0.054c-2.395,0-2.971-0.847-2.971-2.863V5.546h-1.566V3.781z"/>
	<path d="M179.654,3.907l1.603-0.144l0.162,0.918c0.414-0.648,1.152-1.081,2.953-1.081c1.729,0,2.178,0.468,2.413,1.116
		c0.45-0.684,1.278-1.116,3.115-1.116c2.575,0,2.827,1.531,2.827,3.691v6.554h-2.017V7.76c0-1.476-0.072-2.232-1.549-2.232
		c-1.692,0-1.98,0.882-1.98,2.953v5.366h-1.999V7.76c0-1.476-0.072-2.232-1.548-2.232c-1.711,0-1.999,0.9-1.999,2.953v5.366h-1.98
		V3.907z"/>
	<path d="M194.018,10.821c0-2.881,1.657-3.691,5.167-3.691h0.396c-0.036-1.152-0.342-1.71-1.639-1.71
		c-1.08,0-1.927,0.252-2.503,0.54l-0.828-1.639c0.811-0.432,1.98-0.738,3.547-0.738c2.701,0,3.385,1.044,3.385,3.511v4.069
		c0,0.738,0.054,0.918,0.756,0.918v1.765c-0.198,0.018-0.396,0.018-0.576,0.018c-1.081,0-1.621-0.162-1.837-0.9
		c-0.576,0.738-1.458,0.99-2.827,0.99C194.685,13.954,194.018,12.73,194.018,10.821z M199.582,9.975V8.75h-0.378
		c-2.34,0-3.259,0.252-3.259,1.855c0,1.278,0.504,1.674,1.548,1.674C198.664,12.28,199.582,11.812,199.582,9.975z"/>
	<path d="M203.144,3.781h1.639l0.306-2.539l1.62-0.342v2.881h2.341v1.765h-2.341v5.275c0,0.828,0.126,1.26,1.207,1.26h1.134v1.765
		c-0.324,0.018-1.098,0.054-1.368,0.054c-2.395,0-2.971-0.847-2.971-2.863V5.546h-1.566V3.781z"/>
	<path d="M209.822,3.781h1.639l0.306-2.539l1.621-0.342v2.881h2.341v1.765h-2.341v5.275c0,0.828,0.126,1.26,1.207,1.26h1.134v1.765
		c-0.324,0.018-1.098,0.054-1.369,0.054c-2.395,0-2.971-0.847-2.971-2.863V5.546h-1.566V3.781z"/>
	<path d="M216.626,8.787c0-3.151,0.81-5.186,4.087-5.186c3.583,0,3.601,2.25,3.565,6.158h-5.708c0.09,1.657,0.504,2.485,2.197,2.485
		c1.314,0,1.981-0.306,2.575-0.594l0.774,1.549c-0.828,0.45-1.854,0.774-3.457,0.774C217.274,13.972,216.626,11.992,216.626,8.787z
		 M218.57,7.995h3.854c-0.018-1.639-0.072-2.611-1.765-2.611C219.039,5.384,218.643,6.32,218.57,7.995z"/>
	<path d="M225.842,3.907l1.584-0.144l0.18,1.062c0.414-0.648,1.152-1.134,2.809-1.134V5.6c-2.413,0.036-2.557,1.531-2.557,3.241
		v5.005h-2.017V3.907z"/>
	<path d="M230.541,11.271h2.376v2.575h-2.376V11.271z"/>
</g>
</svg>
