<?xml version="1.0" encoding="utf-8"?>
<!-- Generator: Adobe Illustrator 17.1.0, SVG Export Plug-In . SVG Version: 6.00 Build 0)  -->
<!DOCTYPE svg PUBLIC "-//W3C//DTD SVG 1.1//EN" "http://www.w3.org/Graphics/SVG/1.1/DTD/svg11.dtd">
<svg version="1.1" id="Layer_1" xmlns="http://www.w3.org/2000/svg" xmlns:xlink="http://www.w3.org/1999/xlink" x="0px" y="0px"
	 viewBox="0 0 567.333 228" enable-background="new 0 0 567.333 228" xml:space="preserve">
<g>
	<path fill="#FFFFFF" d="M562.166,70.67c0.62-1.087-0.032-1.887-1.41-1.887c-7.182,0-16.604,0.018-24.088,0.018
		c-1.784,0-2.706,0.215-3.547,1.869c-2.759,5.295-36.428,55.747-42.693,65.544c-1.055,1.493-2.345,1.287-2.495-0.414
		c-0.632-5.819-5.66-12.507-13.577-15.707c-6.033-2.448-11.934-2.891-18.064-2.078c-11.073,1.487-20.938,7.332-29.61,13.918
		c-13.074,9.939-24.35,22.819-38.908,32.334c-7.949,5.178-18.831,9.697-26.113,2.953c-6.591-6.11-5.848-19.683,4.235-30.177
		c1.064-1.099,2.336-0.182,2.136,0.808c-0.949,4.749,0.221,9.468,3.821,12.777c4.402,3.941,10.694,4.39,16.083,1.757
		c6.359-3.15,10.094-9.233,11.185-16.139c1.687-10.712-6.559-20.162-16.877-20.918c-8.381-0.588-16.419,2.327-24.25,8.793
		c-3.926,3.256-6.159,5.663-9.554,10.494c-0.826,1.184-2.098,1.307-2.06-0.447c0.397-13.718-5.281-21.432-16.621-21.684
		c-8.798-0.206-18.202,4.564-25.531,10.409c-8.031,6.453-15.055,15.002-22.584,23.036c-0.937,0.988-1.757,0.943-2.019-0.979
		c-0.226-9.086-2.51-17.888-6.718-24.135c-1.487-2.177-4.617-3.253-7.247-1.781c-1.217,0.664-5.448,2.607-8.522,5.087
		c-1.528,1.258-2.119,3.077-1.452,5.41c4.064,13.574,3.168,29.011-2.336,42.047c-5.055,11.937-14.887,22.71-26.436,26.351
		c-7.608,2.413-15.525,1.231-20.418-5.513c-6.724-9.313-4.008-25.505,6.009-38.952c8.849-11.837,21.64-19.36,34.403-24.203
		c1.502-0.579,1.81-1.543,1.387-2.818c-0.697-2.101-1.799-4.957-2.254-6.262c-1.17-3.112-4.449-3.62-8.446-3.183
		c-9.271,1.078-17.638,4.255-25.901,8.678c-21.632,11.587-32.478,34.009-37.236,46.005c-2.286,5.763-4.247,9.36-6.777,12.545
		c-3.409,4.288-7.69,8.19-15.519,15.063c-0.708,0.632-1.237,1.948-0.641,3.168c0.799,1.657,4.873,7.402,6.018,7.917
		c1.278,0.629,2.756-0.247,3.347-0.676c5.481-3.712,12.031-9.595,15.243-13.588c1.123-1.367,2.278-0.791,2.874,1.284
		c2.994,10.679,10.835,19.398,21.67,23.045c19.839,6.691,40.418-2.994,55.947-19.851c9.874-10.715,13.436-17.606,17.215-22.29
		c6.409-7.946,19.06-25.719,34.124-37.13c5.525-4.205,12.063-7.414,15.352-5.284c2.636,1.707,3.491,5.684-0.744,13.383
		c-15.357,28.047-37.959,60.998-42.102,68.988c-0.755,1.387-0.097,2.477,1.355,2.477c8.037-0.038,16.004-0.02,23.301-0.02
		c1.217-0.059,1.757-0.611,2.366-1.466c11.787-18.452,22.88-36.014,34.77-54.169c0.664-1.07,1.278-0.241,1.305,0.226
		c0.247,4.211,1.281,9.977,3.779,13.759c4.493,6.994,10.864,10,17.929,10.044c5.621,0.064,8.463-0.788,14.523-3.05
		c4.934-1.831,8.892-4.232,11.931-6.403c1.775-1.231,2.086,0.831,2.039,1.146c-2.724,14.649,0.641,32.002,15.199,39.199
		c17.421,8.59,36.56-3.482,47.574-14.382c1.075-1.049,2.233-0.94,2.345,1.322c0.232,4.161,2.113,9.101,5.557,12.554
		c9.227,9.263,27.85,5.592,46.537-8.872c11.999-9.263,24.555-22.346,35.899-36.205c0.42-0.535,0.732-1.399-0.079-2.269
		c-1.725-1.807-4.226-3.876-5.936-5.469c-0.784-0.664-1.928-0.473-2.586,0.023c-11.625,11.056-22.09,23.662-37.215,34.092
		c-5.099,3.559-13.227,6.43-16.88,1.49c-1.422-1.916-1.261-4.573,0.144-8.055C488.729,183.233,558.543,76.941,562.166,70.67z
		 M469.883,159.809c0.141,0.814,1.202,1.602,2.242,1.975c0.364,0.135,0.57,0.403,0.156,1.255c-2.971,6.362-5.698,10.03-9.418,15.557
		c-3.421,5.108-7.276,9.095-11.946,12.924c-7.038,5.827-16.818,12.172-24.902,7.908c-3.591-1.866-5.143-6.888-5.072-10.958
		c0.188-11.44,5.26-23.186,14.655-34.729c11.458-14.103,24.124-21.417,32.434-17.42c8.599,4.102,5.854,14.058,2.007,21.875
		C469.751,158.801,469.73,159.315,469.883,159.809z"/>
	<path fill="#FFFFFF" d="M55.765,220.317C29.734,220.505,6.8,204.412,4.17,176.562c-1.463-15.431,2.901-29.187,11.631-40.516
		c7.747-10.094,20.859-18.484,31.958-20.532c3.612-0.664,8.466-0.241,10.471,2.148c3.147,3.662,2.239,7.685-0.902,9.292
		c-8.469,4.323-18.658,11.722-23.697,21.828c-4.094,8.249-4.916,18.193,1.328,27.662c10.456,15.784,39.593,16.215,66.687-8.954
		c6.706-6.16,12.713-12.078,18.816-19.09c11.934-13.644,15.901-18.617,31.764-40.621c0.191-0.25,0.244-0.588,0.159-0.749
		c-0.129-0.279-0.353-0.359-0.814-0.388c-10.588,0.291-19.821,3.45-28.793,10.156c-2.583,1.883-6.301,1.616-7.932-0.861
		c-1.81-2.803-0.514-6.459,2.471-8.519c14.432-10.039,30.204-11.861,46.305-14.579c-0.012,0,1.12,0.056,2.042-1.169
		c6.609-8.481,11.602-16.136,18.646-24.717c7.1-8.704,16.277-16.697,23.286-22.701c9.78-8.413,16.051-11.241,22.425-14.711
		c1.678-0.876-0.215-1.928-0.723-1.928c-35.596-6.689-72.591-15.346-107.943-2.257c-24.479,9.136-35.205,28.552-30.045,41.523
		c3.668,9.201,15.772,10.697,27.101,5.154c9.413-4.614,18.117-12.043,24.291-21.611c3.456-5.31,10.735-1.478,6.806,7.747
		c-10.344,24.314-30.11,43.598-54.183,44.412c-20.483,0.664-33.704-14.406-33.659-32.999c0.076-36.675,40.912-60.83,83.814-64.442
		c51.674-4.27,100.612,9.492,151.918,15.716c39.308,4.761,76.993,4.861,116.501-4.217c4.673-1.014,7.949,1.966,7.646,6.683
		c-0.388,6.821-5.669,13.386-18.681,20.485c-14.799,8.117-30.28,10.576-46.449,10.709c-39.102,0.326-75.524-14.914-113.213-23.104
		c0.056,1.648,0.479,3.617-0.905,4.658c-20.876,15.399-39.746,31.035-52.388,52.999c-0.426,0.506-0.194,0.99,0.544,0.94
		c10.973-0.582,20.841-0.867,31.088-1.684c1.787-0.15,1.854-0.596,1.695-1.904c-0.899-7.573,1.308-16.204,7.967-22.14
		c6.815-6.112,15.352-6.809,21.006-2.407c6.435,5.013,5.866,14.026,2.345,20.785c-3.582,6.862-9.492,10.526-15.172,12.307
		c0,0-1.187,0.261-1.017,1.343c0.226,1.731,7.961,6.018,8.622,7.159c0.638,1.087,0.311,2.771-0.867,4.061
		c-0.823,0.937-2.101,1.819-3.741,1.787c-1.331-0.026-2.14-0.485-3.829-1.402c-3.473-1.884-7.808-4.972-10.7-8.616
		c-0.987-1.231-1.487-1.258-3.95-1.125c-11.087,0.641-28.373,2.313-40.086,3.776c-2.836,0.353-3.253,0.882-3.838,1.866
		c-18.672,30.791-38.611,63.999-60.499,86.227C95.998,213.881,76.479,220.155,55.765,220.317z M233.702,83.495
		c0.294,1.581,0.911,1.884,1.625,1.751c3.556-0.711,7.453-3.638,9.751-7.027c2.104-3.074,3.088-7.511,1.005-9.289
		c-1.866-1.598-4.89-1.146-7.129,0.835C234.483,73.715,233.123,79.316,233.702,83.495z"/>
	<g>
		<path fill="#FFFFFF" d="M279.858,68.789h9.007v4.148h-4.741v8.178h4.662v4.108h-4.662v8.849h4.78v3.99h-9.047V68.789z"/>
		<path fill="#FFFFFF" d="M297.278,96.759c-1.699-2.015-1.62-5.491-1.62-13.353c0-7.703-0.039-11.18,1.501-13.155
			c0.909-1.225,2.607-1.659,4.819-1.659c1.462,0,2.805,0.237,3.24,0.355l-0.79,4.148c-0.632-0.158-1.738-0.237-2.252-0.237
			c-2.094,0-2.094,0.987-2.094,10.627c0,10.034,0.04,10.706,2.173,10.706c0.671,0,1.856-0.198,2.212-0.316l0.909,3.753
			c-0.83,0.276-2.054,0.632-3.437,0.632C299.727,98.26,298.186,97.866,297.278,96.759z"/>
		<path fill="#FFFFFF" d="M312.761,96.799c-1.501-1.896-1.581-5.373-1.581-13.393c0-7.743,0.079-11.259,1.501-13.194
			c0.869-1.186,2.37-1.659,4.543-1.659s3.674,0.474,4.503,1.58c1.501,1.936,1.501,5.412,1.501,13.273c0,8.454,0,11.772-1.541,13.55
			c-0.83,0.988-2.291,1.344-4.464,1.344C315.092,98.3,313.591,97.866,312.761,96.799z M318.924,83.486
			c0-9.995,0-10.667-1.699-10.667s-1.699,0.672-1.699,10.667c0,10.073,0,10.745,1.699,10.745S318.924,93.559,318.924,83.486z"/>
		<path fill="#FFFFFF" d="M329.548,97.905l0.909-3.99c0.83,0.198,2.331,0.355,3.121,0.355c1.857,0,2.331-0.947,1.462-3.437
			l-4.424-13.273c-1.383-4.069-0.909-9.007,5.175-9.007c0.988,0,2.489,0.078,3.437,0.276l-1.027,4.188
			c-0.553-0.158-1.541-0.198-2.094-0.198c-2.054,0-2.212,1.423-1.58,3.358l4.188,12.562c1.501,4.306,1.896,9.6-4.898,9.6
			C332.314,98.339,330.575,98.142,329.548,97.905z"/>
		<path fill="#FFFFFF" d="M347.204,68.789h5.807c5.057,0,5.491,3.2,5.491,9.323s-0.435,9.837-5.293,9.837h-1.738v10.113h-4.267
			V68.789z M352.695,83.92c1.501,0,1.541-1.265,1.541-5.491c0-4.307-0.04-5.61-1.541-5.61h-1.225V83.92H352.695z"/>
		<path fill="#FFFFFF" d="M366.796,96.799c-1.501-1.896-1.581-5.373-1.581-13.393c0-7.743,0.079-11.259,1.501-13.194
			c0.869-1.186,2.37-1.659,4.543-1.659s3.674,0.474,4.503,1.58c1.501,1.936,1.501,5.412,1.501,13.273c0,8.454,0,11.772-1.541,13.55
			c-0.83,0.988-2.291,1.344-4.464,1.344C369.126,98.3,367.625,97.866,366.796,96.799z M372.958,83.486
			c0-9.995,0-10.667-1.699-10.667s-1.699,0.672-1.699,10.667c0,10.073,0,10.745,1.699,10.745S372.958,93.559,372.958,83.486z"/>
		<path fill="#FFFFFF" d="M384.806,68.789h5.886c4.662,0,5.254,3.121,5.254,9.047c0,4.78-0.277,7.348-2.331,8.73l2.133,11.496
			h-4.148l-1.936-10.509h-0.711v10.509h-4.148V68.789z M390.14,83.565c1.541,0,1.58-1.423,1.58-5.412c0-4.109-0.04-5.334-1.58-5.334
			h-1.186v10.746H390.14z"/>
		<path fill="#FFFFFF" d="M405.307,72.898h-3.161v-4.108h10.785v4.108h-3.279v25.165h-4.346V72.898z"/>
	</g>
</g>
</svg>
