<?xml version="1.0" encoding="utf-8"?>
<!-- Generator: Adobe Illustrator 20.0.0, SVG Export Plug-In . SVG Version: 6.00 Build 0)  -->
<svg version="1.1" id="Layer_1" xmlns="http://www.w3.org/2000/svg" xmlns:xlink="http://www.w3.org/1999/xlink" x="0px" y="0px"
	 viewBox="0 0 341.614 35.01" enable-background="new 0 0 341.614 35.01" xml:space="preserve">
<g>
	<g>
		<path fill="#FFFFFF" d="M0,0.232h6.154c5.548,0,5.967,3.637,5.967,10.768c0,7.086-0.419,11.235-5.78,11.235H4.336v12.54H0V0.232z
			 M5.827,18.133c1.959,0,2.005-1.678,2.005-6.853c0-5.268-0.045-6.946-2.005-6.946H4.336v13.799H5.827z"/>
		<path fill="#FFFFFF" d="M24.027,0.232h4.336v30.534h5.035v4.009h-9.372V0.232z"/>
		<path fill="#FFFFFF" d="M49.076,0.093h4.988l4.569,34.683h-4.429l-0.746-6.526h-3.962l-0.699,6.526h-4.242L49.076,0.093z
			 M50.008,24.008h2.938l-0.886-7.879L51.501,9.51l-0.606,6.619L50.008,24.008z"/>
		<path fill="#FFFFFF" d="M71.563,4.382h-3.588V0.232h11.7v4.149h-3.728v30.394h-4.383V4.382z"/>
		<path fill="#FFFFFF" d="M91.466,0.232h4.289v34.543h-4.289V0.232z"/>
		<path fill="#FFFFFF" d="M108.169,0.232h4.709l2.983,13.566l0.886,4.709V0.232h4.057v34.543H116.7L113.065,18.6l-0.839-4.289
			v20.465h-4.057V0.232z"/>
		<path fill="#FFFFFF" d="M133.17,25.638V0.232h4.336v25.5c0,4.008,0.045,5.268,2.05,5.268c1.958,0,2.052-1.26,2.052-5.268v-25.5
			h4.195v25.406c0,6.061-0.325,9.464-6.339,9.37C133.497,35.008,133.17,31.792,133.17,25.638z"/>
		<path fill="#FFFFFF" d="M158.148,0.232h5.687l1.912,17.901l0.28,3.73l0.327-3.73l2.005-17.901h5.687v34.543h-4.149v-22.47
			l-0.327,4.941l-2.005,17.529h-3.216l-2.005-17.481l-0.327-4.988v22.47h-3.87V0.232z"/>
		<path fill="#FFFFFF" d="M201.306,0.232h9.744v4.196h-5.408v10.674h5.315v4.149h-5.315v11.514h5.455v4.009h-9.791V0.232z"/>
		<path fill="#FFFFFF" d="M223.09,0.232h6.386c2.377,0,3.87,0.559,4.848,2.052c1.398,2.19,1.398,5.687,1.398,15.197
			c0,9.882,0,13.379-1.538,15.43c-0.979,1.445-2.471,1.865-4.709,1.865h-6.386V0.232z M229.01,31.001
			c2.424,0,2.424-1.68,2.424-13.427c0-11.654,0-13.379-2.424-13.379h-1.631v26.806H229.01z"/>
		<path fill="#FFFFFF" d="M247.883,0.232h4.287v34.543h-4.287V0.232z"/>
		<path fill="#FFFFFF" d="M267.526,4.382h-3.588V0.232h11.7v4.149h-3.728v30.394h-4.383V4.382z"/>
		<path fill="#FFFFFF" d="M287.428,0.232h4.289v34.543h-4.289V0.232z"/>
		<path fill="#FFFFFF" d="M305.546,33.33c-1.631-2.145-1.725-5.967-1.725-15.849c0-9.604,0.094-13.427,1.632-15.617
			C306.432,0.467,308.065,0,310.395,0c2.332,0,3.962,0.467,4.896,1.771c1.631,2.192,1.631,6.014,1.631,15.711
			c0,10.302,0,13.939-1.678,15.989c-0.886,1.213-2.517,1.538-4.848,1.538C308.11,35.008,306.479,34.589,305.546,33.33z
			 M312.586,17.574c0-12.306,0-13.285-2.192-13.285c-2.19,0-2.19,0.979-2.19,13.285c0,12.401,0.045,13.379,2.19,13.379
			C312.586,30.953,312.586,29.975,312.586,17.574z"/>
		<path fill="#FFFFFF" d="M328.979,0.232h4.709l2.983,13.566l0.886,4.709V0.232h4.057v34.543h-4.104L333.874,18.6l-0.839-4.289
			v20.465h-4.057V0.232z"/>
	</g>
</g>
</svg>
